<?xml version="1.0" standalone="no"?>
<!DOCTYPE svg PUBLIC "-//W3C//DTD SVG 20010904//EN"
 "http://www.w3.org/TR/2001/REC-SVG-20010904/DTD/svg10.dtd">
<svg version="1.0" xmlns="http://www.w3.org/2000/svg"
 width="2211.000000pt" height="2156.000000pt" viewBox="0 0 2211.000000 2156.000000"
 preserveAspectRatio="xMidYMid meet">

<g transform="translate(0.000000,2156.000000) scale(0.100000,-0.100000)"
fill="#000000" stroke="none">
<path d="M13180 21541 c-96 -31 -174 -105 -212 -200 -19 -48 -23 -74 -23 -181
0 -114 2 -130 26 -180 36 -78 80 -124 151 -160 126 -62 282 -31 376 75 66 75
86 138 86 275 1 85 -4 128 -17 165 -25 72 -83 143 -146 178 -46 26 -67 31
-135 34 -45 1 -92 -1 -106 -6z m200 -64 c206 -106 203 -509 -5 -616 -66 -34
-160 -36 -221 -3 -186 97 -218 432 -55 586 69 66 189 80 281 33z"/>
<path d="M8850 21170 l0 -370 25 0 25 0 0 370 0 370 -25 0 -25 0 0 -370z"/>
<path d="M9320 21170 l0 -370 25 0 25 0 0 332 0 333 43 -75 c23 -41 118 -191
211 -332 142 -217 172 -258 192 -258 l24 0 0 370 0 370 -26 0 -26 0 4 -328 3
-329 -38 66 c-21 36 -116 184 -210 328 -156 238 -175 263 -199 263 l-28 0 0
-370z"/>
<path d="M10120 21520 c0 -18 8 -20 118 -22 l117 -3 3 -347 2 -348 25 0 25 0
0 350 0 350 120 0 c113 0 120 1 120 20 0 19 -7 20 -265 20 -257 0 -265 -1
-265 -20z"/>
<path d="M10970 21170 l0 -370 190 0 c183 0 190 1 190 20 0 19 -7 20 -165 20
l-165 0 0 165 0 165 150 0 c143 0 150 1 150 20 0 19 -7 20 -150 20 l-150 0 0
145 0 145 155 0 c148 0 155 1 155 20 0 19 -7 20 -180 20 l-180 0 0 -370z"/>
<path d="M11738 21533 c-17 -4 -18 -30 -18 -369 l0 -364 25 0 25 0 0 170 0
170 70 0 c83 0 142 -21 171 -61 11 -15 33 -81 50 -145 16 -64 32 -121 35 -125
9 -15 57 -11 51 5 -3 7 -17 62 -32 121 -31 128 -56 181 -94 203 l-28 16 46 30
c138 92 116 292 -38 344 -32 11 -226 15 -263 5z m224 -43 c119 -33 154 -179
63 -259 -43 -38 -90 -51 -182 -51 l-73 0 0 154 c0 114 3 156 13 159 22 10 141
7 179 -3z"/>
<path d="M12510 21170 l0 -370 30 0 30 0 0 370 0 370 -30 0 -30 0 0 -370z"/>
<path d="M13978 21533 c-17 -4 -18 -30 -18 -369 l0 -364 25 0 25 0 2 168 3
167 60 3 c33 2 79 -2 103 -9 73 -20 95 -60 140 -249 18 -73 19 -75 51 -78 29
-3 31 -1 23 15 -5 10 -22 67 -36 127 -31 125 -44 154 -86 189 l-31 26 29 15
c138 71 137 284 -2 347 -33 15 -64 18 -156 18 -63 -1 -123 -3 -132 -6z m252
-55 c85 -44 111 -125 68 -207 -34 -66 -79 -86 -193 -86 l-90 0 -3 149 c-2 113
1 151 10 158 7 4 47 8 88 8 59 0 86 -5 120 -22z"/>
<path d="M16570 21201 c0 -12 1 -21 3 -21 21 -2 5123 -50 5275 -50 l212 0 0
-10405 0 -10405 -218 0 c-286 0 -4272 37 -4834 45 -437 6 -438 6 -438 -14 0
-12 1 -21 3 -21 13 -2 5033 -50 5247 -50 l285 0 0 10445 0 10445 -205 0 c-270
0 -4238 37 -4852 45 l-478 7 0 -21z"/>
<path d="M1105 10727 l0 -10445 100 -6 c55 -3 1216 -14 2580 -26 1364 -11
2564 -22 2668 -25 180 -5 187 -5 187 14 0 17 -10 19 -132 25 -73 3 -1280 15
-2683 26 -1402 12 -2578 23 -2612 26 l-63 6 0 10403 0 10403 253 -4 c138 -3
1276 -13 2527 -24 1251 -11 2373 -21 2493 -22 198 -3 217 -2 217 14 0 13 -12
18 -52 22 -29 3 -1180 14 -2558 25 -1378 12 -2599 24 -2715 27 l-210 5 0
-10444z"/>
<path d="M11500 18341 l0 -1401 25 0 25 0 0 1395 c0 840 -4 1395 -9 1395 -5 0
-16 3 -25 6 -15 6 -16 -121 -16 -1395z"/>
<path d="M10185 15554 c-308 -30 -486 -73 -674 -160 -493 -230 -748 -688 -836
-1504 -22 -206 -30 -654 -16 -885 53 -842 256 -1345 655 -1627 283 -200 658
-289 1160 -275 429 12 722 87 979 253 37 24 70 44 72 44 9 0 5 -234 -6 -371
-35 -442 -136 -710 -324 -862 -124 -100 -311 -170 -520 -196 -54 -7 -286 -11
-582 -11 l-493 0 0 -130 0 -130 505 0 c299 0 546 4 607 11 341 37 619 175 801
399 l37 45 0 -2147 0 -2148 130 0 130 0 0 2466 0 2466 523 -5 c413 -3 546 -8
637 -21 189 -27 317 -55 457 -101 421 -138 661 -380 740 -745 14 -66 18 -125
17 -260 -1 -155 -4 -186 -27 -275 -51 -193 -152 -353 -298 -473 -38 -31 -183
-122 -322 -202 -139 -80 -257 -148 -264 -153 -8 -5 9 -43 54 -121 l66 -113
261 149 c303 174 362 216 477 335 98 103 144 169 204 296 79 168 115 343 115
567 0 224 -36 399 -115 567 -62 131 -131 227 -243 335 -262 253 -598 389
-1137 459 -53 7 -311 15 -625 18 l-535 6 -3 1023 -2 1022 -83 0 c-45 0 -105
-3 -132 -6 l-51 -6 4 -655 4 -655 -88 -87 c-133 -131 -274 -207 -496 -266
-178 -48 -292 -59 -573 -59 -226 0 -277 3 -389 23 -294 52 -467 139 -656 331
-146 148 -232 309 -304 574 -69 249 -102 524 -112 921 -19 718 87 1282 298
1594 97 142 321 320 483 382 335 129 898 144 1290 33 116 -33 279 -111 365
-174 73 -54 163 -145 158 -160 -2 -5 -223 -194 -493 -420 -269 -227 -492 -414
-494 -416 -2 -2 88 -4 201 -4 l206 0 438 371 c242 204 452 382 468 395 l28 24
-53 87 c-103 166 -311 354 -496 447 -148 74 -345 133 -544 161 -108 16 -492
28 -584 19z"/>
<path d="M11500 3080 l0 -1400 25 0 25 0 0 1394 c0 1262 -1 1394 -16 1400 -9
3 -20 6 -25 6 -5 0 -9 -556 -9 -1400z"/>
<path d="M10385 761 c-112 -29 -173 -126 -145 -230 16 -61 74 -112 171 -152
127 -51 171 -109 156 -206 -9 -52 -33 -82 -85 -105 -57 -25 -148 -21 -208 10
l-41 21 -11 -24 c-10 -21 -8 -25 24 -40 53 -25 136 -35 201 -25 112 19 175 91
175 200 0 101 -38 145 -182 214 -122 58 -142 79 -148 154 -3 48 0 62 19 86 12
16 37 35 55 42 44 18 126 18 171 -1 37 -16 52 -9 53 21 0 28 -141 52 -205 35z"/>
<path d="M8588 753 l-38 -4 0 -364 c0 -322 2 -364 16 -369 26 -10 206 -7 270
5 125 23 211 88 262 198 22 47 27 73 30 166 3 93 1 119 -17 165 -39 103 -116
170 -230 196 -52 13 -205 16 -293 7z m298 -58 c64 -19 134 -79 165 -142 20
-41 23 -64 24 -153 0 -99 -2 -109 -33 -172 -34 -70 -81 -116 -146 -143 -51
-22 -168 -36 -231 -29 l-55 7 0 323 0 323 38 4 c62 8 184 -1 238 -18z"/>
<path d="M9510 390 l0 -370 190 0 c183 0 190 1 190 20 0 19 -7 20 -165 20
l-165 0 0 160 0 160 145 0 145 0 0 25 0 25 -145 0 -145 0 0 140 0 140 155 0
155 0 0 25 0 25 -180 0 -180 0 0 -370z"/>
<path d="M11010 390 l0 -370 25 0 25 0 0 370 0 370 -25 0 -25 0 0 -370z"/>
<path d="M11673 741 c-162 -56 -252 -201 -240 -385 9 -151 64 -244 179 -307
62 -34 64 -34 188 -33 83 0 138 5 165 15 l40 14 3 168 2 167 -110 0 c-103 0
-110 -1 -110 -20 0 -17 8 -19 83 -22 l82 -3 3 -127 3 -126 -38 -13 c-56 -19
-178 -16 -242 5 -120 41 -193 158 -193 311 0 143 54 240 165 295 81 40 168 49
256 26 35 -9 65 -15 67 -14 1 2 4 12 6 22 2 16 -6 23 -37 32 -62 19 -211 17
-272 -5z"/>
<path d="M12400 390 l0 -370 25 0 25 0 2 325 3 324 48 -80 c27 -45 121 -191
209 -325 135 -206 164 -244 184 -244 l24 0 0 370 0 370 -26 0 -27 0 5 -331 5
-331 -42 74 c-24 40 -120 189 -214 331 -148 223 -174 257 -196 257 l-25 0 0
-370z"/>
<path d="M13340 390 l0 -370 195 0 c188 0 195 1 195 20 0 19 -7 20 -165 20
l-165 0 0 160 0 160 145 0 145 0 0 25 0 25 -145 0 -145 0 0 140 0 140 155 0
155 0 0 25 0 25 -185 0 -185 0 0 -370z"/>
<path d="M14128 753 l-28 -4 0 -365 0 -364 25 0 25 0 0 171 0 172 81 -6 c132
-10 166 -41 199 -177 42 -169 38 -160 69 -160 l29 0 -14 48 c-8 26 -22 79 -31
117 -19 88 -45 138 -83 166 l-29 22 43 27 c63 40 90 90 90 164 -1 97 -48 160
-139 185 -38 10 -179 13 -237 4z m208 -48 c29 -8 62 -28 79 -45 27 -29 30 -38
30 -100 0 -65 -2 -71 -35 -105 -42 -43 -81 -55 -182 -55 l-78 0 0 154 c0 152
0 155 23 159 49 9 116 6 163 -8z"/>
</g>
</svg>
